M48
;DRILL file {KiCad 5.0.2-bee76a0~70~ubuntu16.04.1} date lun 09 sep 2019 00:07:01 -05
;FORMAT={-:-/ absolute / inch / decimal}
FMAT,2
INCH,TZ
T1C0.0315
T2C0.0315
T3C0.0354
T4C0.0394
T5C0.0433
T6C0.0520
%
G90
G05
T1
X5.7125Y-3.8455
X6.1125Y-3.8455
X5.5065Y-4.503
X5.9065Y-4.503
X5.1172Y-2.8045
X5.2172Y-2.8045
X5.3172Y-2.8045
X5.4172Y-2.8045
X5.477Y-4.7045
X5.5172Y-2.8045
X5.577Y-4.7045
X5.6172Y-2.8045
X5.677Y-4.7045
X5.7172Y-2.8045
X5.777Y-4.7045
X5.8172Y-2.8045
X5.877Y-4.7045
X5.9172Y-2.8045
X5.977Y-4.7045
X6.0172Y-2.8045
X6.077Y-4.7045
X6.177Y-2.8045
X6.177Y-4.7045
X6.277Y-2.8045
X6.377Y-2.8045
X6.377Y-4.7045
X6.477Y-2.8045
X6.477Y-4.7045
X6.577Y-2.8045
X6.577Y-4.7045
X6.677Y-2.8045
X6.677Y-4.7045
X6.777Y-2.8045
X6.777Y-4.7045
X6.877Y-2.8045
X6.877Y-4.7045
X6.7625Y-3.647
X6.7625Y-3.7257
X5.723Y-4.2855
X6.123Y-4.2855
X5.3025Y-3.067
X5.6025Y-3.067
X6.1125Y-4.5005
X6.5125Y-4.5005
X6.676Y-4.302
X6.7547Y-4.302
X6.1955Y-4.062
X6.5955Y-4.062
T2
X6.9915Y-4.76
X5.5205Y-4.872
T3
X5.3625Y-4.0175
X5.3625Y-4.1175
T5
X6.192Y-3.441
X6.592Y-3.441
X5.272Y-3.286
X5.272Y-3.686
X6.0475Y-3.067
X6.4475Y-3.067
X5.5285Y-3.543
X5.6285Y-3.543
X5.7285Y-3.543
T6
X7.283Y-3.661
X7.283Y-3.8579
X7.283Y-3.21
X7.283Y-3.4069
X7.283Y-4.109
X7.283Y-4.3059
X4.7075Y-4.1315
X4.7075Y-4.3284
X7.283Y-4.5555
X7.283Y-4.7524
X5.0915Y-4.6415
X5.2884Y-4.6415
T4
X7.069Y-2.8095G85X7.069Y-2.8883
G05
X7.2934Y-2.7308G85X7.2146Y-2.7308
G05
X7.2934Y-2.967G85X7.2146Y-2.967
G05
T0
M30
