G04 #@! TF.GenerationSoftware,KiCad,Pcbnew,5.0.2-bee76a0~70~ubuntu16.04.1*
G04 #@! TF.CreationDate,2019-09-09T00:06:54-05:00*
G04 #@! TF.ProjectId,sensor_machine,73656e73-6f72-45f6-9d61-6368696e652e,V1*
G04 #@! TF.SameCoordinates,Original*
G04 #@! TF.FileFunction,Soldermask,Top*
G04 #@! TF.FilePolarity,Negative*
%FSLAX46Y46*%
G04 Gerber Fmt 4.6, Leading zero omitted, Abs format (unit mm)*
G04 Created by KiCad (PCBNEW 5.0.2-bee76a0~70~ubuntu16.04.1) date lun 09 sep 2019 00:06:54 -05*
%MOMM*%
%LPD*%
G01*
G04 APERTURE LIST*
%ADD10C,0.100000*%
G04 APERTURE END LIST*
D10*
G36*
X140512237Y-122787718D02*
X140694137Y-122863064D01*
X140857837Y-122972445D01*
X140997055Y-123111663D01*
X141106436Y-123275363D01*
X141181782Y-123457263D01*
X141220190Y-123650356D01*
X141220190Y-123847244D01*
X141181782Y-124040337D01*
X141106436Y-124222237D01*
X140997055Y-124385937D01*
X140857837Y-124525155D01*
X140694137Y-124634536D01*
X140512237Y-124709882D01*
X140319144Y-124748290D01*
X140122256Y-124748290D01*
X139929163Y-124709882D01*
X139747263Y-124634536D01*
X139583563Y-124525155D01*
X139444345Y-124385937D01*
X139334964Y-124222237D01*
X139259618Y-124040337D01*
X139221210Y-123847244D01*
X139221210Y-123650356D01*
X139259618Y-123457263D01*
X139334964Y-123275363D01*
X139444345Y-123111663D01*
X139583563Y-122972445D01*
X139747263Y-122863064D01*
X139929163Y-122787718D01*
X140122256Y-122749310D01*
X140319144Y-122749310D01*
X140512237Y-122787718D01*
X140512237Y-122787718D01*
G37*
G36*
X177875637Y-119942918D02*
X178057537Y-120018264D01*
X178221237Y-120127645D01*
X178360455Y-120266863D01*
X178469836Y-120430563D01*
X178545182Y-120612463D01*
X178583590Y-120805556D01*
X178583590Y-121002444D01*
X178545182Y-121195537D01*
X178469836Y-121377437D01*
X178360455Y-121541137D01*
X178221237Y-121680355D01*
X178057537Y-121789736D01*
X177875637Y-121865082D01*
X177682544Y-121903490D01*
X177485656Y-121903490D01*
X177292563Y-121865082D01*
X177110663Y-121789736D01*
X176946963Y-121680355D01*
X176807745Y-121541137D01*
X176698364Y-121377437D01*
X176623018Y-121195537D01*
X176584610Y-121002444D01*
X176584610Y-120805556D01*
X176623018Y-120612463D01*
X176698364Y-120430563D01*
X176807745Y-120266863D01*
X176946963Y-120127645D01*
X177110663Y-120018264D01*
X177292563Y-119942918D01*
X177485656Y-119904510D01*
X177682544Y-119904510D01*
X177875637Y-119942918D01*
X177875637Y-119942918D01*
G37*
G36*
X186172274Y-119734025D02*
X186358890Y-119790634D01*
X186530876Y-119882562D01*
X186681623Y-120006277D01*
X186805338Y-120157024D01*
X186897266Y-120329010D01*
X186897267Y-120329013D01*
X186903975Y-120351126D01*
X186953875Y-120515626D01*
X186972990Y-120709700D01*
X186953875Y-120903774D01*
X186897266Y-121090390D01*
X186805338Y-121262376D01*
X186681623Y-121413123D01*
X186530876Y-121536838D01*
X186358890Y-121628766D01*
X186172274Y-121685375D01*
X186026833Y-121699700D01*
X183949567Y-121699700D01*
X183804126Y-121685375D01*
X183617510Y-121628766D01*
X183445524Y-121536838D01*
X183294777Y-121413123D01*
X183171062Y-121262376D01*
X183079134Y-121090390D01*
X183022525Y-120903774D01*
X183003410Y-120709700D01*
X183022525Y-120515626D01*
X183072425Y-120351126D01*
X183079133Y-120329013D01*
X183079134Y-120329010D01*
X183171062Y-120157024D01*
X183294777Y-120006277D01*
X183445524Y-119882562D01*
X183617510Y-119790634D01*
X183804126Y-119734025D01*
X183949567Y-119719700D01*
X186026833Y-119719700D01*
X186172274Y-119734025D01*
X186172274Y-119734025D01*
G37*
G36*
X151972626Y-118005875D02*
X152123428Y-118051621D01*
X152262406Y-118125906D01*
X152384222Y-118225878D01*
X152484194Y-118347694D01*
X152558479Y-118486672D01*
X152604225Y-118637474D01*
X152615800Y-118755002D01*
X152615800Y-120233598D01*
X152604225Y-120351126D01*
X152558479Y-120501928D01*
X152484194Y-120640906D01*
X152384221Y-120762724D01*
X152262408Y-120862692D01*
X152123427Y-120936979D01*
X151972625Y-120982725D01*
X151815799Y-120998171D01*
X151658974Y-120982725D01*
X151508172Y-120936979D01*
X151369194Y-120862694D01*
X151247376Y-120762721D01*
X151147408Y-120640908D01*
X151073121Y-120501927D01*
X151027375Y-120351125D01*
X151015800Y-120233597D01*
X151015800Y-118755002D01*
X151027375Y-118637474D01*
X151073121Y-118486671D01*
X151147405Y-118347696D01*
X151247379Y-118225878D01*
X151369195Y-118125906D01*
X151508173Y-118051621D01*
X151658975Y-118005875D01*
X151815801Y-117990429D01*
X151972626Y-118005875D01*
X151972626Y-118005875D01*
G37*
G36*
X154512626Y-118005875D02*
X154663428Y-118051621D01*
X154802406Y-118125906D01*
X154924222Y-118225878D01*
X155024194Y-118347694D01*
X155098479Y-118486672D01*
X155144225Y-118637474D01*
X155155800Y-118755002D01*
X155155800Y-120233598D01*
X155144225Y-120351126D01*
X155098479Y-120501928D01*
X155024194Y-120640906D01*
X154924221Y-120762724D01*
X154802408Y-120862692D01*
X154663427Y-120936979D01*
X154512625Y-120982725D01*
X154355799Y-120998171D01*
X154198974Y-120982725D01*
X154048172Y-120936979D01*
X153909194Y-120862694D01*
X153787376Y-120762721D01*
X153687408Y-120640908D01*
X153613121Y-120501927D01*
X153567375Y-120351125D01*
X153555800Y-120233597D01*
X153555800Y-118755002D01*
X153567375Y-118637474D01*
X153613121Y-118486671D01*
X153687405Y-118347696D01*
X153787379Y-118225878D01*
X153909195Y-118125906D01*
X154048173Y-118051621D01*
X154198975Y-118005875D01*
X154355801Y-117990429D01*
X154512626Y-118005875D01*
X154512626Y-118005875D01*
G37*
G36*
X157052626Y-118005875D02*
X157203428Y-118051621D01*
X157342406Y-118125906D01*
X157464222Y-118225878D01*
X157564194Y-118347694D01*
X157638479Y-118486672D01*
X157684225Y-118637474D01*
X157695800Y-118755002D01*
X157695800Y-120233598D01*
X157684225Y-120351126D01*
X157638479Y-120501928D01*
X157564194Y-120640906D01*
X157464221Y-120762724D01*
X157342408Y-120862692D01*
X157203427Y-120936979D01*
X157052625Y-120982725D01*
X156895799Y-120998171D01*
X156738974Y-120982725D01*
X156588172Y-120936979D01*
X156449194Y-120862694D01*
X156327376Y-120762721D01*
X156227408Y-120640908D01*
X156153121Y-120501927D01*
X156107375Y-120351125D01*
X156095800Y-120233597D01*
X156095800Y-118755002D01*
X156107375Y-118637474D01*
X156153121Y-118486671D01*
X156227405Y-118347696D01*
X156327379Y-118225878D01*
X156449195Y-118125906D01*
X156588173Y-118051621D01*
X156738975Y-118005875D01*
X156895801Y-117990429D01*
X157052626Y-118005875D01*
X157052626Y-118005875D01*
G37*
G36*
X164672626Y-118005875D02*
X164823428Y-118051621D01*
X164962406Y-118125906D01*
X165084222Y-118225878D01*
X165184194Y-118347694D01*
X165258479Y-118486672D01*
X165304225Y-118637474D01*
X165315800Y-118755002D01*
X165315800Y-120233598D01*
X165304225Y-120351126D01*
X165258479Y-120501928D01*
X165184194Y-120640906D01*
X165084221Y-120762724D01*
X164962408Y-120862692D01*
X164823427Y-120936979D01*
X164672625Y-120982725D01*
X164515799Y-120998171D01*
X164358974Y-120982725D01*
X164208172Y-120936979D01*
X164069194Y-120862694D01*
X163947376Y-120762721D01*
X163847408Y-120640908D01*
X163773121Y-120501927D01*
X163727375Y-120351125D01*
X163715800Y-120233597D01*
X163715800Y-118755002D01*
X163727375Y-118637474D01*
X163773121Y-118486671D01*
X163847405Y-118347696D01*
X163947379Y-118225878D01*
X164069195Y-118125906D01*
X164208173Y-118051621D01*
X164358975Y-118005875D01*
X164515801Y-117990429D01*
X164672626Y-118005875D01*
X164672626Y-118005875D01*
G37*
G36*
X149432626Y-118005875D02*
X149583428Y-118051621D01*
X149722406Y-118125906D01*
X149844222Y-118225878D01*
X149944194Y-118347694D01*
X150018479Y-118486672D01*
X150064225Y-118637474D01*
X150075800Y-118755002D01*
X150075800Y-120233598D01*
X150064225Y-120351126D01*
X150018479Y-120501928D01*
X149944194Y-120640906D01*
X149844221Y-120762724D01*
X149722408Y-120862692D01*
X149583427Y-120936979D01*
X149432625Y-120982725D01*
X149275799Y-120998171D01*
X149118974Y-120982725D01*
X148968172Y-120936979D01*
X148829194Y-120862694D01*
X148707376Y-120762721D01*
X148607408Y-120640908D01*
X148533121Y-120501927D01*
X148487375Y-120351125D01*
X148475800Y-120233597D01*
X148475800Y-118755002D01*
X148487375Y-118637474D01*
X148533121Y-118486671D01*
X148607405Y-118347696D01*
X148707379Y-118225878D01*
X148829195Y-118125906D01*
X148968173Y-118051621D01*
X149118975Y-118005875D01*
X149275801Y-117990429D01*
X149432626Y-118005875D01*
X149432626Y-118005875D01*
G37*
G36*
X144352626Y-118005875D02*
X144503428Y-118051621D01*
X144642406Y-118125906D01*
X144764222Y-118225878D01*
X144864194Y-118347694D01*
X144938479Y-118486672D01*
X144984225Y-118637474D01*
X144995800Y-118755002D01*
X144995800Y-120233598D01*
X144984225Y-120351126D01*
X144938479Y-120501928D01*
X144864194Y-120640906D01*
X144764221Y-120762724D01*
X144642408Y-120862692D01*
X144503427Y-120936979D01*
X144352625Y-120982725D01*
X144195799Y-120998171D01*
X144038974Y-120982725D01*
X143888172Y-120936979D01*
X143749194Y-120862694D01*
X143627376Y-120762721D01*
X143527408Y-120640908D01*
X143453121Y-120501927D01*
X143407375Y-120351125D01*
X143395800Y-120233597D01*
X143395800Y-118755002D01*
X143407375Y-118637474D01*
X143453121Y-118486671D01*
X143527405Y-118347696D01*
X143627379Y-118225878D01*
X143749195Y-118125906D01*
X143888173Y-118051621D01*
X144038975Y-118005875D01*
X144195801Y-117990429D01*
X144352626Y-118005875D01*
X144352626Y-118005875D01*
G37*
G36*
X162132626Y-118005875D02*
X162283428Y-118051621D01*
X162422406Y-118125906D01*
X162544222Y-118225878D01*
X162644194Y-118347694D01*
X162718479Y-118486672D01*
X162764225Y-118637474D01*
X162775800Y-118755002D01*
X162775800Y-120233598D01*
X162764225Y-120351126D01*
X162718479Y-120501928D01*
X162644194Y-120640906D01*
X162544221Y-120762724D01*
X162422408Y-120862692D01*
X162283427Y-120936979D01*
X162132625Y-120982725D01*
X161975799Y-120998171D01*
X161818974Y-120982725D01*
X161668172Y-120936979D01*
X161529194Y-120862694D01*
X161407376Y-120762721D01*
X161307408Y-120640908D01*
X161233121Y-120501927D01*
X161187375Y-120351125D01*
X161175800Y-120233597D01*
X161175800Y-118755002D01*
X161187375Y-118637474D01*
X161233121Y-118486671D01*
X161307405Y-118347696D01*
X161407379Y-118225878D01*
X161529195Y-118125906D01*
X161668173Y-118051621D01*
X161818975Y-118005875D01*
X161975801Y-117990429D01*
X162132626Y-118005875D01*
X162132626Y-118005875D01*
G37*
G36*
X167212626Y-118005875D02*
X167363428Y-118051621D01*
X167502406Y-118125906D01*
X167624222Y-118225878D01*
X167724194Y-118347694D01*
X167798479Y-118486672D01*
X167844225Y-118637474D01*
X167855800Y-118755002D01*
X167855800Y-120233598D01*
X167844225Y-120351126D01*
X167798479Y-120501928D01*
X167724194Y-120640906D01*
X167624221Y-120762724D01*
X167502408Y-120862692D01*
X167363427Y-120936979D01*
X167212625Y-120982725D01*
X167055799Y-120998171D01*
X166898974Y-120982725D01*
X166748172Y-120936979D01*
X166609194Y-120862694D01*
X166487376Y-120762721D01*
X166387408Y-120640908D01*
X166313121Y-120501927D01*
X166267375Y-120351125D01*
X166255800Y-120233597D01*
X166255800Y-118755002D01*
X166267375Y-118637474D01*
X166313121Y-118486671D01*
X166387405Y-118347696D01*
X166487379Y-118225878D01*
X166609195Y-118125906D01*
X166748173Y-118051621D01*
X166898975Y-118005875D01*
X167055801Y-117990429D01*
X167212626Y-118005875D01*
X167212626Y-118005875D01*
G37*
G36*
X169752626Y-118005875D02*
X169903428Y-118051621D01*
X170042406Y-118125906D01*
X170164222Y-118225878D01*
X170264194Y-118347694D01*
X170338479Y-118486672D01*
X170384225Y-118637474D01*
X170395800Y-118755002D01*
X170395800Y-120233598D01*
X170384225Y-120351126D01*
X170338479Y-120501928D01*
X170264194Y-120640906D01*
X170164221Y-120762724D01*
X170042408Y-120862692D01*
X169903427Y-120936979D01*
X169752625Y-120982725D01*
X169595799Y-120998171D01*
X169438974Y-120982725D01*
X169288172Y-120936979D01*
X169149194Y-120862694D01*
X169027376Y-120762721D01*
X168927408Y-120640908D01*
X168853121Y-120501927D01*
X168807375Y-120351125D01*
X168795800Y-120233597D01*
X168795800Y-118755002D01*
X168807375Y-118637474D01*
X168853121Y-118486671D01*
X168927405Y-118347696D01*
X169027379Y-118225878D01*
X169149195Y-118125906D01*
X169288173Y-118051621D01*
X169438975Y-118005875D01*
X169595801Y-117990429D01*
X169752626Y-118005875D01*
X169752626Y-118005875D01*
G37*
G36*
X172292626Y-118005875D02*
X172443428Y-118051621D01*
X172582406Y-118125906D01*
X172704222Y-118225878D01*
X172804194Y-118347694D01*
X172878479Y-118486672D01*
X172924225Y-118637474D01*
X172935800Y-118755002D01*
X172935800Y-120233598D01*
X172924225Y-120351126D01*
X172878479Y-120501928D01*
X172804194Y-120640906D01*
X172704221Y-120762724D01*
X172582408Y-120862692D01*
X172443427Y-120936979D01*
X172292625Y-120982725D01*
X172135799Y-120998171D01*
X171978974Y-120982725D01*
X171828172Y-120936979D01*
X171689194Y-120862694D01*
X171567376Y-120762721D01*
X171467408Y-120640908D01*
X171393121Y-120501927D01*
X171347375Y-120351125D01*
X171335800Y-120233597D01*
X171335800Y-118755002D01*
X171347375Y-118637474D01*
X171393121Y-118486671D01*
X171467405Y-118347696D01*
X171567379Y-118225878D01*
X171689195Y-118125906D01*
X171828173Y-118051621D01*
X171978975Y-118005875D01*
X172135801Y-117990429D01*
X172292626Y-118005875D01*
X172292626Y-118005875D01*
G37*
G36*
X174832626Y-118005875D02*
X174983428Y-118051621D01*
X175122406Y-118125906D01*
X175244222Y-118225878D01*
X175344194Y-118347694D01*
X175418479Y-118486672D01*
X175464225Y-118637474D01*
X175475800Y-118755002D01*
X175475800Y-120233598D01*
X175464225Y-120351126D01*
X175418479Y-120501928D01*
X175344194Y-120640906D01*
X175244221Y-120762724D01*
X175122408Y-120862692D01*
X174983427Y-120936979D01*
X174832625Y-120982725D01*
X174675799Y-120998171D01*
X174518974Y-120982725D01*
X174368172Y-120936979D01*
X174229194Y-120862694D01*
X174107376Y-120762721D01*
X174007408Y-120640908D01*
X173933121Y-120501927D01*
X173887375Y-120351125D01*
X173875800Y-120233597D01*
X173875800Y-118755002D01*
X173887375Y-118637474D01*
X173933121Y-118486671D01*
X174007405Y-118347696D01*
X174107379Y-118225878D01*
X174229195Y-118125906D01*
X174368173Y-118051621D01*
X174518975Y-118005875D01*
X174675801Y-117990429D01*
X174832626Y-118005875D01*
X174832626Y-118005875D01*
G37*
G36*
X141812626Y-118005875D02*
X141963428Y-118051621D01*
X142102406Y-118125906D01*
X142224222Y-118225878D01*
X142324194Y-118347694D01*
X142398479Y-118486672D01*
X142444225Y-118637474D01*
X142455800Y-118755002D01*
X142455800Y-120233598D01*
X142444225Y-120351126D01*
X142398479Y-120501928D01*
X142324194Y-120640906D01*
X142224221Y-120762724D01*
X142102408Y-120862692D01*
X141963427Y-120936979D01*
X141812625Y-120982725D01*
X141655799Y-120998171D01*
X141498974Y-120982725D01*
X141348172Y-120936979D01*
X141209194Y-120862694D01*
X141087376Y-120762721D01*
X140987408Y-120640908D01*
X140913121Y-120501927D01*
X140867375Y-120351125D01*
X140855800Y-120233597D01*
X140855800Y-118755002D01*
X140867375Y-118637474D01*
X140913121Y-118486671D01*
X140987405Y-118347696D01*
X141087379Y-118225878D01*
X141209195Y-118125906D01*
X141348173Y-118051621D01*
X141498975Y-118005875D01*
X141655801Y-117990429D01*
X141812626Y-118005875D01*
X141812626Y-118005875D01*
G37*
G36*
X146892626Y-118005875D02*
X147043428Y-118051621D01*
X147182406Y-118125906D01*
X147304222Y-118225878D01*
X147404194Y-118347694D01*
X147478479Y-118486672D01*
X147524225Y-118637474D01*
X147535800Y-118755002D01*
X147535800Y-120233598D01*
X147524225Y-120351126D01*
X147478479Y-120501928D01*
X147404194Y-120640906D01*
X147304221Y-120762724D01*
X147182408Y-120862692D01*
X147043427Y-120936979D01*
X146892625Y-120982725D01*
X146735799Y-120998171D01*
X146578974Y-120982725D01*
X146428172Y-120936979D01*
X146289194Y-120862694D01*
X146167376Y-120762721D01*
X146067408Y-120640908D01*
X145993121Y-120501927D01*
X145947375Y-120351125D01*
X145935800Y-120233597D01*
X145935800Y-118755002D01*
X145947375Y-118637474D01*
X145993121Y-118486671D01*
X146067405Y-118347696D01*
X146167379Y-118225878D01*
X146289195Y-118125906D01*
X146428173Y-118051621D01*
X146578975Y-118005875D01*
X146735801Y-117990429D01*
X146892626Y-118005875D01*
X146892626Y-118005875D01*
G37*
G36*
X139915800Y-120994300D02*
X138315800Y-120994300D01*
X138315800Y-117994300D01*
X139915800Y-117994300D01*
X139915800Y-120994300D01*
X139915800Y-120994300D01*
G37*
G36*
X125405400Y-118638502D02*
X125405402Y-118638503D01*
X125405403Y-118638503D01*
X125567373Y-118705593D01*
X125567374Y-118705594D01*
X125567377Y-118705595D01*
X125713139Y-118802989D01*
X125837111Y-118926961D01*
X125934505Y-119072723D01*
X126001598Y-119234700D01*
X126007583Y-119264790D01*
X126035800Y-119406643D01*
X126035800Y-119581957D01*
X126001597Y-119753903D01*
X125939214Y-119904510D01*
X125934505Y-119915877D01*
X125837111Y-120061639D01*
X125713139Y-120185611D01*
X125567377Y-120283005D01*
X125567374Y-120283006D01*
X125567373Y-120283007D01*
X125405403Y-120350097D01*
X125405402Y-120350097D01*
X125405400Y-120350098D01*
X125233458Y-120384300D01*
X125058142Y-120384300D01*
X124886200Y-120350098D01*
X124886198Y-120350097D01*
X124886197Y-120350097D01*
X124724227Y-120283007D01*
X124724226Y-120283006D01*
X124724223Y-120283005D01*
X124578461Y-120185611D01*
X124454489Y-120061639D01*
X124357095Y-119915877D01*
X124352387Y-119904510D01*
X124290003Y-119753903D01*
X124255800Y-119581957D01*
X124255800Y-119406643D01*
X124284017Y-119264790D01*
X124290002Y-119234700D01*
X124357095Y-119072723D01*
X124454489Y-118926961D01*
X124578461Y-118802989D01*
X124724223Y-118705595D01*
X124724226Y-118705594D01*
X124724227Y-118705593D01*
X124886197Y-118638503D01*
X124886198Y-118638503D01*
X124886200Y-118638502D01*
X125058142Y-118604300D01*
X125233458Y-118604300D01*
X125405400Y-118638502D01*
X125405400Y-118638502D01*
G37*
G36*
X134518173Y-115928425D02*
X134704789Y-115985034D01*
X134876776Y-116076962D01*
X135027523Y-116200677D01*
X135151238Y-116351424D01*
X135243166Y-116523410D01*
X135299775Y-116710026D01*
X135314100Y-116855467D01*
X135314100Y-118932733D01*
X135299775Y-119078174D01*
X135243166Y-119264790D01*
X135151238Y-119436776D01*
X135027523Y-119587523D01*
X134876776Y-119711238D01*
X134704790Y-119803166D01*
X134518174Y-119859775D01*
X134324100Y-119878890D01*
X134130027Y-119859775D01*
X133943411Y-119803166D01*
X133771425Y-119711238D01*
X133620678Y-119587523D01*
X133496963Y-119436776D01*
X133405035Y-119264790D01*
X133348426Y-119078174D01*
X133334101Y-118932733D01*
X133334100Y-116855468D01*
X133348425Y-116710027D01*
X133405034Y-116523411D01*
X133496962Y-116351424D01*
X133620677Y-116200677D01*
X133771424Y-116076962D01*
X133943410Y-115985034D01*
X134130026Y-115928425D01*
X134324100Y-115909310D01*
X134518173Y-115928425D01*
X134518173Y-115928425D01*
G37*
G36*
X130314100Y-119874100D02*
X128334100Y-119874100D01*
X128334100Y-115914100D01*
X130314100Y-115914100D01*
X130314100Y-119874100D01*
X130314100Y-119874100D01*
G37*
G36*
X186968200Y-116699700D02*
X183008200Y-116699700D01*
X183008200Y-114719700D01*
X186968200Y-114719700D01*
X186968200Y-116699700D01*
X186968200Y-116699700D01*
G37*
G36*
X177475400Y-113558502D02*
X177475402Y-113558503D01*
X177475403Y-113558503D01*
X177637373Y-113625593D01*
X177637374Y-113625594D01*
X177637377Y-113625595D01*
X177783139Y-113722989D01*
X177907111Y-113846961D01*
X178004505Y-113992723D01*
X178004506Y-113992726D01*
X178004507Y-113992727D01*
X178009620Y-114005072D01*
X178071598Y-114154700D01*
X178105800Y-114326642D01*
X178105800Y-114501957D01*
X178071597Y-114673903D01*
X178009920Y-114822806D01*
X178004505Y-114835877D01*
X177907111Y-114981639D01*
X177783139Y-115105611D01*
X177637377Y-115203005D01*
X177637374Y-115203006D01*
X177637373Y-115203007D01*
X177475403Y-115270097D01*
X177475402Y-115270097D01*
X177475400Y-115270098D01*
X177303458Y-115304300D01*
X177128142Y-115304300D01*
X176956200Y-115270098D01*
X176956198Y-115270097D01*
X176956197Y-115270097D01*
X176794227Y-115203007D01*
X176794226Y-115203006D01*
X176794223Y-115203005D01*
X176648461Y-115105611D01*
X176524489Y-114981639D01*
X176427095Y-114835877D01*
X176421681Y-114822806D01*
X176360003Y-114673903D01*
X176325800Y-114501957D01*
X176325800Y-114326642D01*
X176360002Y-114154700D01*
X176421980Y-114005072D01*
X176427093Y-113992727D01*
X176427094Y-113992726D01*
X176427095Y-113992723D01*
X176524489Y-113846961D01*
X176648461Y-113722989D01*
X176794223Y-113625595D01*
X176794226Y-113625594D01*
X176794227Y-113625593D01*
X176956197Y-113558503D01*
X176956198Y-113558503D01*
X176956200Y-113558502D01*
X177128142Y-113524300D01*
X177303458Y-113524300D01*
X177475400Y-113558502D01*
X177475400Y-113558502D01*
G37*
G36*
X140021926Y-113587775D02*
X140172728Y-113633521D01*
X140311706Y-113707806D01*
X140433522Y-113807778D01*
X140533494Y-113929594D01*
X140607779Y-114068572D01*
X140653525Y-114219374D01*
X140668971Y-114376200D01*
X140653525Y-114533026D01*
X140607779Y-114683828D01*
X140533494Y-114822806D01*
X140433522Y-114944622D01*
X140311706Y-115044594D01*
X140172728Y-115118879D01*
X140021926Y-115164625D01*
X139904398Y-115176200D01*
X139825802Y-115176200D01*
X139708274Y-115164625D01*
X139557472Y-115118879D01*
X139418494Y-115044594D01*
X139296678Y-114944622D01*
X139196706Y-114822806D01*
X139122421Y-114683828D01*
X139076675Y-114533026D01*
X139061229Y-114376200D01*
X139076675Y-114219374D01*
X139122421Y-114068572D01*
X139196706Y-113929594D01*
X139296678Y-113807778D01*
X139418494Y-113707806D01*
X139557472Y-113633521D01*
X139708274Y-113587775D01*
X139825802Y-113576200D01*
X139904398Y-113576200D01*
X140021926Y-113587775D01*
X140021926Y-113587775D01*
G37*
G36*
X150258451Y-113606943D02*
X150404042Y-113667249D01*
X150535070Y-113754799D01*
X150646501Y-113866230D01*
X150734051Y-113997258D01*
X150794357Y-114142849D01*
X150825100Y-114297407D01*
X150825100Y-114454993D01*
X150794357Y-114609551D01*
X150734051Y-114755142D01*
X150646501Y-114886170D01*
X150535070Y-114997601D01*
X150404042Y-115085151D01*
X150258451Y-115145457D01*
X150103893Y-115176200D01*
X149946307Y-115176200D01*
X149791749Y-115145457D01*
X149646158Y-115085151D01*
X149515130Y-114997601D01*
X149403699Y-114886170D01*
X149316149Y-114755142D01*
X149255843Y-114609551D01*
X149225100Y-114454993D01*
X149225100Y-114297407D01*
X149255843Y-114142849D01*
X149316149Y-113997258D01*
X149403699Y-113866230D01*
X149515130Y-113754799D01*
X149646158Y-113667249D01*
X149791749Y-113606943D01*
X149946307Y-113576200D01*
X150103893Y-113576200D01*
X150258451Y-113606943D01*
X150258451Y-113606943D01*
G37*
G36*
X165650851Y-113543443D02*
X165796442Y-113603749D01*
X165927470Y-113691299D01*
X166038901Y-113802730D01*
X166126451Y-113933758D01*
X166186757Y-114079349D01*
X166217500Y-114233907D01*
X166217500Y-114391493D01*
X166186757Y-114546051D01*
X166126451Y-114691642D01*
X166038901Y-114822670D01*
X165927470Y-114934101D01*
X165796442Y-115021651D01*
X165650851Y-115081957D01*
X165496293Y-115112700D01*
X165338707Y-115112700D01*
X165184149Y-115081957D01*
X165038558Y-115021651D01*
X164907530Y-114934101D01*
X164796099Y-114822670D01*
X164708549Y-114691642D01*
X164648243Y-114546051D01*
X164617500Y-114391493D01*
X164617500Y-114233907D01*
X164648243Y-114079349D01*
X164708549Y-113933758D01*
X164796099Y-113802730D01*
X164907530Y-113691299D01*
X165038558Y-113603749D01*
X165184149Y-113543443D01*
X165338707Y-113512700D01*
X165496293Y-113512700D01*
X165650851Y-113543443D01*
X165650851Y-113543443D01*
G37*
G36*
X155414326Y-113524275D02*
X155565128Y-113570021D01*
X155704106Y-113644306D01*
X155825922Y-113744278D01*
X155925894Y-113866094D01*
X156000179Y-114005072D01*
X156045925Y-114155874D01*
X156061371Y-114312700D01*
X156045925Y-114469526D01*
X156000179Y-114620328D01*
X155925894Y-114759306D01*
X155825922Y-114881122D01*
X155704106Y-114981094D01*
X155565128Y-115055379D01*
X155414326Y-115101125D01*
X155296798Y-115112700D01*
X155218202Y-115112700D01*
X155100674Y-115101125D01*
X154949872Y-115055379D01*
X154810894Y-114981094D01*
X154689078Y-114881122D01*
X154589106Y-114759306D01*
X154514821Y-114620328D01*
X154469075Y-114469526D01*
X154453629Y-114312700D01*
X154469075Y-114155874D01*
X154514821Y-114005072D01*
X154589106Y-113866094D01*
X154689078Y-113744278D01*
X154810894Y-113644306D01*
X154949872Y-113570021D01*
X155100674Y-113524275D01*
X155218202Y-113512700D01*
X155296798Y-113512700D01*
X155414326Y-113524275D01*
X155414326Y-113524275D01*
G37*
G36*
X120754574Y-108964425D02*
X120754577Y-108964426D01*
X120899957Y-109008526D01*
X120941190Y-109021034D01*
X121113176Y-109112962D01*
X121263923Y-109236677D01*
X121387638Y-109387424D01*
X121479566Y-109559410D01*
X121479567Y-109559413D01*
X121480556Y-109562674D01*
X121536175Y-109746026D01*
X121555290Y-109940100D01*
X121536175Y-110134174D01*
X121479566Y-110320790D01*
X121387638Y-110492776D01*
X121263923Y-110643523D01*
X121113176Y-110767238D01*
X120941190Y-110859166D01*
X120754574Y-110915775D01*
X120609133Y-110930100D01*
X118531867Y-110930100D01*
X118386426Y-110915775D01*
X118199810Y-110859166D01*
X118027824Y-110767238D01*
X117877077Y-110643523D01*
X117753362Y-110492776D01*
X117661434Y-110320790D01*
X117604825Y-110134174D01*
X117585710Y-109940100D01*
X117604825Y-109746026D01*
X117660444Y-109562674D01*
X117661433Y-109559413D01*
X117661434Y-109559410D01*
X117753362Y-109387424D01*
X117877077Y-109236677D01*
X118027824Y-109112962D01*
X118199810Y-109021034D01*
X118241044Y-109008526D01*
X118386423Y-108964426D01*
X118386426Y-108964425D01*
X118531867Y-108950100D01*
X120609133Y-108950100D01*
X120754574Y-108964425D01*
X120754574Y-108964425D01*
G37*
G36*
X186172274Y-108392925D02*
X186358890Y-108449534D01*
X186530876Y-108541462D01*
X186681623Y-108665177D01*
X186805338Y-108815924D01*
X186897266Y-108987910D01*
X186953875Y-109174526D01*
X186972990Y-109368600D01*
X186953875Y-109562674D01*
X186897266Y-109749290D01*
X186805338Y-109921276D01*
X186681623Y-110072023D01*
X186530876Y-110195738D01*
X186358890Y-110287666D01*
X186172274Y-110344275D01*
X186026833Y-110358600D01*
X183949567Y-110358600D01*
X183804126Y-110344275D01*
X183617510Y-110287666D01*
X183445524Y-110195738D01*
X183294777Y-110072023D01*
X183171062Y-109921276D01*
X183079134Y-109749290D01*
X183022525Y-109562674D01*
X183003410Y-109368600D01*
X183022525Y-109174526D01*
X183079134Y-108987910D01*
X183171062Y-108815924D01*
X183294777Y-108665177D01*
X183445524Y-108541462D01*
X183617510Y-108449534D01*
X183804126Y-108392925D01*
X183949567Y-108378600D01*
X186026833Y-108378600D01*
X186172274Y-108392925D01*
X186172274Y-108392925D01*
G37*
G36*
X170400848Y-108526817D02*
X170437812Y-108595972D01*
X170487557Y-108656587D01*
X170548172Y-108706332D01*
X170617327Y-108743296D01*
X170692364Y-108766058D01*
X170770400Y-108773744D01*
X170848436Y-108766058D01*
X170923473Y-108743296D01*
X170992628Y-108706332D01*
X171053237Y-108656592D01*
X171060430Y-108649399D01*
X171191458Y-108561849D01*
X171337049Y-108501543D01*
X171491607Y-108470800D01*
X171649193Y-108470800D01*
X171803751Y-108501543D01*
X171949342Y-108561849D01*
X172080370Y-108649399D01*
X172191801Y-108760830D01*
X172279351Y-108891858D01*
X172339657Y-109037449D01*
X172370400Y-109192007D01*
X172370400Y-109349593D01*
X172339657Y-109504151D01*
X172279351Y-109649742D01*
X172191801Y-109780770D01*
X172080370Y-109892201D01*
X171949342Y-109979751D01*
X171803751Y-110040057D01*
X171649193Y-110070800D01*
X171491607Y-110070800D01*
X171337049Y-110040057D01*
X171191458Y-109979751D01*
X171060430Y-109892201D01*
X171053237Y-109885008D01*
X170992628Y-109835268D01*
X170923473Y-109798304D01*
X170848436Y-109775542D01*
X170770400Y-109767856D01*
X170692364Y-109775542D01*
X170617327Y-109798304D01*
X170548172Y-109835268D01*
X170487557Y-109885013D01*
X170437812Y-109945628D01*
X170400848Y-110014783D01*
X170383856Y-110070800D01*
X168770400Y-110070800D01*
X168770400Y-108470800D01*
X170383856Y-108470800D01*
X170400848Y-108526817D01*
X170400848Y-108526817D01*
G37*
G36*
X145597551Y-108082443D02*
X145743142Y-108142749D01*
X145874170Y-108230299D01*
X145985601Y-108341730D01*
X146073151Y-108472758D01*
X146133457Y-108618349D01*
X146164200Y-108772907D01*
X146164200Y-108930493D01*
X146133457Y-109085051D01*
X146073151Y-109230642D01*
X145985601Y-109361670D01*
X145874170Y-109473101D01*
X145743142Y-109560651D01*
X145597551Y-109620957D01*
X145442993Y-109651700D01*
X145285407Y-109651700D01*
X145130849Y-109620957D01*
X144985258Y-109560651D01*
X144854230Y-109473101D01*
X144742799Y-109361670D01*
X144655249Y-109230642D01*
X144594943Y-109085051D01*
X144564200Y-108930493D01*
X144564200Y-108772907D01*
X144594943Y-108618349D01*
X144655249Y-108472758D01*
X144742799Y-108341730D01*
X144854230Y-108230299D01*
X144985258Y-108142749D01*
X145130849Y-108082443D01*
X145285407Y-108051700D01*
X145442993Y-108051700D01*
X145597551Y-108082443D01*
X145597551Y-108082443D01*
G37*
G36*
X155681026Y-108063275D02*
X155831828Y-108109021D01*
X155970806Y-108183306D01*
X156092622Y-108283278D01*
X156192594Y-108405094D01*
X156266879Y-108544072D01*
X156312625Y-108694874D01*
X156328071Y-108851700D01*
X156312625Y-109008526D01*
X156266879Y-109159328D01*
X156192594Y-109298306D01*
X156092622Y-109420122D01*
X155970806Y-109520094D01*
X155831828Y-109594379D01*
X155681026Y-109640125D01*
X155563498Y-109651700D01*
X155484902Y-109651700D01*
X155367374Y-109640125D01*
X155216572Y-109594379D01*
X155077594Y-109520094D01*
X154955778Y-109420122D01*
X154855806Y-109298306D01*
X154781521Y-109159328D01*
X154735775Y-109008526D01*
X154720329Y-108851700D01*
X154735775Y-108694874D01*
X154781521Y-108544072D01*
X154855806Y-108405094D01*
X154955778Y-108283278D01*
X155077594Y-108183306D01*
X155216572Y-108109021D01*
X155367374Y-108063275D01*
X155484902Y-108051700D01*
X155563498Y-108051700D01*
X155681026Y-108063275D01*
X155681026Y-108063275D01*
G37*
G36*
X121550500Y-105930100D02*
X117590500Y-105930100D01*
X117590500Y-103950100D01*
X121550500Y-103950100D01*
X121550500Y-105930100D01*
X121550500Y-105930100D01*
G37*
G36*
X137107500Y-102944500D02*
X136610939Y-102944500D01*
X136532903Y-102952186D01*
X136457866Y-102974948D01*
X136388711Y-103011912D01*
X136328096Y-103061657D01*
X136278351Y-103122272D01*
X136241387Y-103191427D01*
X136218625Y-103266464D01*
X136210939Y-103344500D01*
X136218625Y-103422536D01*
X136241387Y-103497573D01*
X136278351Y-103566728D01*
X136328096Y-103627343D01*
X136388711Y-103677088D01*
X136457866Y-103714052D01*
X136470018Y-103719086D01*
X136470020Y-103719086D01*
X136633810Y-103786930D01*
X136781217Y-103885424D01*
X136906576Y-104010783D01*
X137005070Y-104158190D01*
X137072914Y-104321980D01*
X137107500Y-104495858D01*
X137107500Y-104673142D01*
X137072914Y-104847020D01*
X137005070Y-105010810D01*
X136906576Y-105158217D01*
X136781217Y-105283576D01*
X136633810Y-105382070D01*
X136470020Y-105449914D01*
X136354101Y-105472971D01*
X136296143Y-105484500D01*
X136118857Y-105484500D01*
X136060899Y-105472971D01*
X135944980Y-105449914D01*
X135781190Y-105382070D01*
X135633783Y-105283576D01*
X135508424Y-105158217D01*
X135409930Y-105010810D01*
X135342086Y-104847020D01*
X135307500Y-104673142D01*
X135307500Y-104495858D01*
X135342086Y-104321980D01*
X135409930Y-104158190D01*
X135508424Y-104010783D01*
X135633783Y-103885424D01*
X135781190Y-103786930D01*
X135944980Y-103719086D01*
X135944982Y-103719086D01*
X135957134Y-103714052D01*
X136026289Y-103677088D01*
X136086904Y-103627343D01*
X136136649Y-103566728D01*
X136173613Y-103497573D01*
X136196375Y-103422536D01*
X136204061Y-103344500D01*
X136196375Y-103266464D01*
X136173613Y-103191427D01*
X136136649Y-103122272D01*
X136086904Y-103061657D01*
X136026289Y-103011912D01*
X135957134Y-102974948D01*
X135882097Y-102952186D01*
X135804061Y-102944500D01*
X135307500Y-102944500D01*
X135307500Y-101144500D01*
X137107500Y-101144500D01*
X137107500Y-102944500D01*
X137107500Y-102944500D01*
G37*
G36*
X186968200Y-105358600D02*
X183008200Y-105358600D01*
X183008200Y-103378600D01*
X186968200Y-103378600D01*
X186968200Y-105358600D01*
X186968200Y-105358600D01*
G37*
G36*
X157522526Y-102386375D02*
X157673328Y-102432121D01*
X157812306Y-102506406D01*
X157934122Y-102606378D01*
X158034094Y-102728194D01*
X158108379Y-102867172D01*
X158154125Y-103017974D01*
X158169571Y-103174800D01*
X158154125Y-103331626D01*
X158108379Y-103482428D01*
X158034094Y-103621406D01*
X157934122Y-103743222D01*
X157812306Y-103843194D01*
X157673328Y-103917479D01*
X157522526Y-103963225D01*
X157404998Y-103974800D01*
X157326402Y-103974800D01*
X157208874Y-103963225D01*
X157058072Y-103917479D01*
X156919094Y-103843194D01*
X156797278Y-103743222D01*
X156697306Y-103621406D01*
X156623021Y-103482428D01*
X156577275Y-103331626D01*
X156561829Y-103174800D01*
X156577275Y-103017974D01*
X156623021Y-102867172D01*
X156697306Y-102728194D01*
X156797278Y-102606378D01*
X156919094Y-102506406D01*
X157058072Y-102432121D01*
X157208874Y-102386375D01*
X157326402Y-102374800D01*
X157404998Y-102374800D01*
X157522526Y-102386375D01*
X157522526Y-102386375D01*
G37*
G36*
X167759051Y-102405543D02*
X167904642Y-102465849D01*
X168035670Y-102553399D01*
X168147101Y-102664830D01*
X168234651Y-102795858D01*
X168294957Y-102941449D01*
X168325700Y-103096007D01*
X168325700Y-103253593D01*
X168294957Y-103408151D01*
X168234651Y-103553742D01*
X168147101Y-103684770D01*
X168035670Y-103796201D01*
X167904642Y-103883751D01*
X167759051Y-103944057D01*
X167604493Y-103974800D01*
X167446907Y-103974800D01*
X167292349Y-103944057D01*
X167146758Y-103883751D01*
X167015730Y-103796201D01*
X166904299Y-103684770D01*
X166816749Y-103553742D01*
X166756443Y-103408151D01*
X166725700Y-103253593D01*
X166725700Y-103096007D01*
X166756443Y-102941449D01*
X166816749Y-102795858D01*
X166904299Y-102664830D01*
X167015730Y-102553399D01*
X167146758Y-102465849D01*
X167292349Y-102405543D01*
X167446907Y-102374800D01*
X167604493Y-102374800D01*
X167759051Y-102405543D01*
X167759051Y-102405543D01*
G37*
G36*
X186172274Y-97013725D02*
X186358890Y-97070334D01*
X186530876Y-97162262D01*
X186681623Y-97285977D01*
X186805338Y-97436724D01*
X186897266Y-97608710D01*
X186953875Y-97795326D01*
X186972990Y-97989400D01*
X186953875Y-98183474D01*
X186897266Y-98370090D01*
X186805338Y-98542076D01*
X186681623Y-98692823D01*
X186530876Y-98816538D01*
X186358890Y-98908466D01*
X186172274Y-98965075D01*
X186026833Y-98979400D01*
X183949567Y-98979400D01*
X183804126Y-98965075D01*
X183617510Y-98908466D01*
X183445524Y-98816538D01*
X183294777Y-98692823D01*
X183171062Y-98542076D01*
X183079134Y-98370090D01*
X183022525Y-98183474D01*
X183003410Y-97989400D01*
X183022525Y-97795326D01*
X183079134Y-97608710D01*
X183171062Y-97436724D01*
X183294777Y-97285977D01*
X183445524Y-97162262D01*
X183617510Y-97070334D01*
X183804126Y-97013725D01*
X183949567Y-96999400D01*
X186026833Y-96999400D01*
X186172274Y-97013725D01*
X186172274Y-97013725D01*
G37*
G36*
X155414326Y-96887275D02*
X155565128Y-96933021D01*
X155704106Y-97007306D01*
X155825922Y-97107278D01*
X155925894Y-97229094D01*
X156000179Y-97368072D01*
X156045925Y-97518874D01*
X156061371Y-97675700D01*
X156045925Y-97832526D01*
X156000179Y-97983328D01*
X155925894Y-98122306D01*
X155825922Y-98244122D01*
X155704106Y-98344094D01*
X155565128Y-98418379D01*
X155414326Y-98464125D01*
X155296798Y-98475700D01*
X155218202Y-98475700D01*
X155100674Y-98464125D01*
X154949872Y-98418379D01*
X154810894Y-98344094D01*
X154689078Y-98244122D01*
X154589106Y-98122306D01*
X154514821Y-97983328D01*
X154469075Y-97832526D01*
X154453629Y-97675700D01*
X154469075Y-97518874D01*
X154514821Y-97368072D01*
X154589106Y-97229094D01*
X154689078Y-97107278D01*
X154810894Y-97007306D01*
X154949872Y-96933021D01*
X155100674Y-96887275D01*
X155218202Y-96875700D01*
X155296798Y-96875700D01*
X155414326Y-96887275D01*
X155414326Y-96887275D01*
G37*
G36*
X145330851Y-96906443D02*
X145476442Y-96966749D01*
X145607470Y-97054299D01*
X145718901Y-97165730D01*
X145806451Y-97296758D01*
X145866757Y-97442349D01*
X145897500Y-97596907D01*
X145897500Y-97754493D01*
X145866757Y-97909051D01*
X145806451Y-98054642D01*
X145718901Y-98185670D01*
X145607470Y-98297101D01*
X145476442Y-98384651D01*
X145330851Y-98444957D01*
X145176293Y-98475700D01*
X145018707Y-98475700D01*
X144864149Y-98444957D01*
X144718558Y-98384651D01*
X144587530Y-98297101D01*
X144476099Y-98185670D01*
X144388549Y-98054642D01*
X144328243Y-97909051D01*
X144297500Y-97754493D01*
X144297500Y-97596907D01*
X144328243Y-97442349D01*
X144388549Y-97296758D01*
X144476099Y-97165730D01*
X144587530Y-97054299D01*
X144718558Y-96966749D01*
X144864149Y-96906443D01*
X145018707Y-96875700D01*
X145176293Y-96875700D01*
X145330851Y-96906443D01*
X145330851Y-96906443D01*
G37*
G36*
X172567500Y-93447256D02*
X172511483Y-93464248D01*
X172442328Y-93501212D01*
X172381713Y-93550957D01*
X172331968Y-93611572D01*
X172295004Y-93680727D01*
X172272242Y-93755764D01*
X172264556Y-93833800D01*
X172272242Y-93911836D01*
X172295004Y-93986873D01*
X172331968Y-94056028D01*
X172381708Y-94116637D01*
X172388901Y-94123830D01*
X172476451Y-94254858D01*
X172536757Y-94400449D01*
X172567500Y-94555007D01*
X172567500Y-94712593D01*
X172536757Y-94867151D01*
X172476451Y-95012742D01*
X172388901Y-95143770D01*
X172277470Y-95255201D01*
X172146442Y-95342751D01*
X172000851Y-95403057D01*
X171846293Y-95433800D01*
X171688707Y-95433800D01*
X171534149Y-95403057D01*
X171388558Y-95342751D01*
X171257530Y-95255201D01*
X171146099Y-95143770D01*
X171058549Y-95012742D01*
X170998243Y-94867151D01*
X170967500Y-94712593D01*
X170967500Y-94555007D01*
X170998243Y-94400449D01*
X171058549Y-94254858D01*
X171146099Y-94123830D01*
X171153292Y-94116637D01*
X171203032Y-94056028D01*
X171239996Y-93986873D01*
X171262758Y-93911836D01*
X171270444Y-93833800D01*
X171262758Y-93755764D01*
X171239996Y-93680727D01*
X171203032Y-93611572D01*
X171153287Y-93550957D01*
X171092672Y-93501212D01*
X171023517Y-93464248D01*
X170967500Y-93447256D01*
X170967500Y-91833800D01*
X172567500Y-91833800D01*
X172567500Y-93447256D01*
X172567500Y-93447256D01*
G37*
G36*
X135008800Y-94724400D02*
X132808800Y-94724400D01*
X132808800Y-92524400D01*
X135008800Y-92524400D01*
X135008800Y-94724400D01*
X135008800Y-94724400D01*
G37*
G36*
X186968200Y-93979400D02*
X183008200Y-93979400D01*
X183008200Y-91999400D01*
X186968200Y-91999400D01*
X186968200Y-93979400D01*
X186968200Y-93979400D01*
G37*
G36*
X143026141Y-88993722D02*
X143150624Y-89005983D01*
X143330169Y-89060447D01*
X143495637Y-89148891D01*
X143495640Y-89148893D01*
X143495641Y-89148894D01*
X143640678Y-89267922D01*
X143640680Y-89267925D01*
X143759707Y-89412959D01*
X143848153Y-89578430D01*
X143851124Y-89588223D01*
X143881131Y-89660668D01*
X143924695Y-89725866D01*
X143980142Y-89781313D01*
X144045340Y-89824878D01*
X144117785Y-89854886D01*
X144194692Y-89870184D01*
X144273106Y-89870184D01*
X144350013Y-89854886D01*
X144422458Y-89824879D01*
X144487656Y-89781315D01*
X144543103Y-89725868D01*
X144586668Y-89660670D01*
X144616676Y-89588225D01*
X144619648Y-89578429D01*
X144708091Y-89412963D01*
X144739033Y-89375260D01*
X144827122Y-89267922D01*
X144872958Y-89230306D01*
X144972159Y-89148893D01*
X145137630Y-89060447D01*
X145317175Y-89005983D01*
X145503899Y-88987592D01*
X145503900Y-88987592D01*
X145566141Y-88993722D01*
X145690624Y-89005983D01*
X145870169Y-89060447D01*
X146035637Y-89148891D01*
X146035640Y-89148893D01*
X146035641Y-89148894D01*
X146180678Y-89267922D01*
X146180680Y-89267925D01*
X146299707Y-89412959D01*
X146388153Y-89578430D01*
X146442617Y-89757975D01*
X146456400Y-89897911D01*
X146456400Y-90086488D01*
X146442617Y-90226424D01*
X146388153Y-90405969D01*
X146299709Y-90571437D01*
X146299707Y-90571440D01*
X146299706Y-90571441D01*
X146180678Y-90716478D01*
X146093068Y-90788377D01*
X146035638Y-90835509D01*
X145870170Y-90923953D01*
X145690625Y-90978417D01*
X145503901Y-90996808D01*
X145503900Y-90996808D01*
X145441659Y-90990678D01*
X145317176Y-90978417D01*
X145137631Y-90923953D01*
X144972163Y-90835509D01*
X144972159Y-90835506D01*
X144827122Y-90716478D01*
X144789506Y-90670642D01*
X144708093Y-90571441D01*
X144619647Y-90405970D01*
X144616676Y-90396177D01*
X144586669Y-90323732D01*
X144543105Y-90258534D01*
X144487658Y-90203087D01*
X144422460Y-90159522D01*
X144350015Y-90129514D01*
X144273108Y-90114216D01*
X144194694Y-90114216D01*
X144117787Y-90129514D01*
X144045342Y-90159521D01*
X143980144Y-90203085D01*
X143924697Y-90258532D01*
X143881132Y-90323730D01*
X143851124Y-90396175D01*
X143848152Y-90405971D01*
X143759709Y-90571437D01*
X143759707Y-90571440D01*
X143759706Y-90571441D01*
X143640678Y-90716478D01*
X143553068Y-90788377D01*
X143495638Y-90835509D01*
X143330170Y-90923953D01*
X143150625Y-90978417D01*
X142963901Y-90996808D01*
X142963900Y-90996808D01*
X142901659Y-90990678D01*
X142777176Y-90978417D01*
X142597631Y-90923953D01*
X142432163Y-90835509D01*
X142432159Y-90835506D01*
X142287122Y-90716478D01*
X142249506Y-90670642D01*
X142168093Y-90571441D01*
X142129168Y-90498618D01*
X142085604Y-90433419D01*
X142030157Y-90377972D01*
X141964958Y-90334408D01*
X141892513Y-90304401D01*
X141815606Y-90289103D01*
X141737192Y-90289103D01*
X141660285Y-90304401D01*
X141587841Y-90334409D01*
X141522642Y-90377973D01*
X141467195Y-90433420D01*
X141423631Y-90498619D01*
X141393624Y-90571064D01*
X141376400Y-90687177D01*
X141376400Y-90992200D01*
X139471400Y-90992200D01*
X139471400Y-88992200D01*
X141376400Y-88992200D01*
X141376400Y-89297224D01*
X141384086Y-89375260D01*
X141406848Y-89450297D01*
X141443812Y-89519452D01*
X141493557Y-89580067D01*
X141554172Y-89629812D01*
X141623327Y-89666776D01*
X141698364Y-89689538D01*
X141776400Y-89697224D01*
X141854436Y-89689538D01*
X141929473Y-89666776D01*
X141998628Y-89629812D01*
X142059243Y-89580067D01*
X142129168Y-89485783D01*
X142168091Y-89412963D01*
X142199033Y-89375260D01*
X142287122Y-89267922D01*
X142332958Y-89230306D01*
X142432159Y-89148893D01*
X142597630Y-89060447D01*
X142777175Y-89005983D01*
X142963899Y-88987592D01*
X142963900Y-88987592D01*
X143026141Y-88993722D01*
X143026141Y-88993722D01*
G37*
G36*
X168536800Y-88501400D02*
X166336800Y-88501400D01*
X166336800Y-86301400D01*
X168536800Y-86301400D01*
X168536800Y-88501400D01*
X168536800Y-88501400D01*
G37*
G36*
X157492438Y-86317316D02*
X157699788Y-86380216D01*
X157890884Y-86482358D01*
X158058381Y-86619819D01*
X158195842Y-86787316D01*
X158297984Y-86978412D01*
X158360884Y-87185762D01*
X158382122Y-87401400D01*
X158360884Y-87617038D01*
X158297984Y-87824388D01*
X158195842Y-88015484D01*
X158058381Y-88182981D01*
X157890884Y-88320442D01*
X157699788Y-88422584D01*
X157492438Y-88485484D01*
X157330836Y-88501400D01*
X157222764Y-88501400D01*
X157061162Y-88485484D01*
X156853812Y-88422584D01*
X156662716Y-88320442D01*
X156495219Y-88182981D01*
X156357758Y-88015484D01*
X156255616Y-87824388D01*
X156192716Y-87617038D01*
X156171478Y-87401400D01*
X156192716Y-87185762D01*
X156255616Y-86978412D01*
X156357758Y-86787316D01*
X156495219Y-86619819D01*
X156662716Y-86482358D01*
X156853812Y-86380216D01*
X157061162Y-86317316D01*
X157222764Y-86301400D01*
X157330836Y-86301400D01*
X157492438Y-86317316D01*
X157492438Y-86317316D01*
G37*
G36*
X186172274Y-85558325D02*
X186358890Y-85614934D01*
X186530876Y-85706862D01*
X186681623Y-85830577D01*
X186805338Y-85981324D01*
X186897266Y-86153310D01*
X186953875Y-86339926D01*
X186972990Y-86534000D01*
X186953875Y-86728074D01*
X186897266Y-86914690D01*
X186805338Y-87086676D01*
X186681623Y-87237423D01*
X186530876Y-87361138D01*
X186358890Y-87453066D01*
X186172274Y-87509675D01*
X186026833Y-87524000D01*
X183949567Y-87524000D01*
X183804126Y-87509675D01*
X183617510Y-87453066D01*
X183445524Y-87361138D01*
X183294777Y-87237423D01*
X183171062Y-87086676D01*
X183079134Y-86914690D01*
X183022525Y-86728074D01*
X183003410Y-86534000D01*
X183022525Y-86339926D01*
X183079134Y-86153310D01*
X183171062Y-85981324D01*
X183294777Y-85830577D01*
X183445524Y-85706862D01*
X183617510Y-85614934D01*
X183804126Y-85558325D01*
X183949567Y-85544000D01*
X186026833Y-85544000D01*
X186172274Y-85558325D01*
X186172274Y-85558325D01*
G37*
G36*
X177475400Y-85618502D02*
X177475402Y-85618503D01*
X177475403Y-85618503D01*
X177637373Y-85685593D01*
X177637374Y-85685594D01*
X177637377Y-85685595D01*
X177783139Y-85782989D01*
X177907111Y-85906961D01*
X178004505Y-86052723D01*
X178004506Y-86052726D01*
X178004507Y-86052727D01*
X178046171Y-86153313D01*
X178071598Y-86214700D01*
X178105800Y-86386642D01*
X178105800Y-86561958D01*
X178072757Y-86728074D01*
X178071597Y-86733903D01*
X178049473Y-86787316D01*
X178004505Y-86895877D01*
X177907111Y-87041639D01*
X177783139Y-87165611D01*
X177637377Y-87263005D01*
X177637374Y-87263006D01*
X177637373Y-87263007D01*
X177475403Y-87330097D01*
X177475402Y-87330097D01*
X177475400Y-87330098D01*
X177303458Y-87364300D01*
X177128142Y-87364300D01*
X176956200Y-87330098D01*
X176956198Y-87330097D01*
X176956197Y-87330097D01*
X176794227Y-87263007D01*
X176794226Y-87263006D01*
X176794223Y-87263005D01*
X176648461Y-87165611D01*
X176524489Y-87041639D01*
X176427095Y-86895877D01*
X176382128Y-86787316D01*
X176360003Y-86733903D01*
X176358844Y-86728074D01*
X176325800Y-86561958D01*
X176325800Y-86386642D01*
X176360002Y-86214700D01*
X176385429Y-86153313D01*
X176427093Y-86052727D01*
X176427094Y-86052726D01*
X176427095Y-86052723D01*
X176524489Y-85906961D01*
X176648461Y-85782989D01*
X176794223Y-85685595D01*
X176794226Y-85685594D01*
X176794227Y-85685593D01*
X176956197Y-85618503D01*
X176956198Y-85618503D01*
X176956200Y-85618502D01*
X177128142Y-85584300D01*
X177303458Y-85584300D01*
X177475400Y-85618502D01*
X177475400Y-85618502D01*
G37*
G36*
X134124438Y-82380316D02*
X134331788Y-82443216D01*
X134522884Y-82545358D01*
X134690381Y-82682819D01*
X134827842Y-82850316D01*
X134929984Y-83041412D01*
X134992884Y-83248762D01*
X135014122Y-83464400D01*
X134992884Y-83680038D01*
X134929984Y-83887388D01*
X134827842Y-84078484D01*
X134690381Y-84245981D01*
X134522884Y-84383442D01*
X134331788Y-84485584D01*
X134124438Y-84548484D01*
X133962836Y-84564400D01*
X133854764Y-84564400D01*
X133693162Y-84548484D01*
X133485812Y-84485584D01*
X133294716Y-84383442D01*
X133127219Y-84245981D01*
X132989758Y-84078484D01*
X132887616Y-83887388D01*
X132824716Y-83680038D01*
X132803478Y-83464400D01*
X132824716Y-83248762D01*
X132887616Y-83041412D01*
X132989758Y-82850316D01*
X133127219Y-82682819D01*
X133294716Y-82545358D01*
X133485812Y-82443216D01*
X133693162Y-82380316D01*
X133854764Y-82364400D01*
X133962836Y-82364400D01*
X134124438Y-82380316D01*
X134124438Y-82380316D01*
G37*
G36*
X186968200Y-82524000D02*
X183008200Y-82524000D01*
X183008200Y-80544000D01*
X186968200Y-80544000D01*
X186968200Y-82524000D01*
X186968200Y-82524000D01*
G37*
G36*
X153822138Y-76817716D02*
X154029488Y-76880616D01*
X154220584Y-76982758D01*
X154388081Y-77120219D01*
X154525542Y-77287716D01*
X154627684Y-77478812D01*
X154690584Y-77686162D01*
X154711822Y-77901800D01*
X154690584Y-78117438D01*
X154627684Y-78324788D01*
X154525542Y-78515884D01*
X154388081Y-78683381D01*
X154220584Y-78820842D01*
X154029488Y-78922984D01*
X153822138Y-78985884D01*
X153660536Y-79001800D01*
X153552464Y-79001800D01*
X153390862Y-78985884D01*
X153183512Y-78922984D01*
X152992416Y-78820842D01*
X152824919Y-78683381D01*
X152687458Y-78515884D01*
X152585316Y-78324788D01*
X152522416Y-78117438D01*
X152501178Y-77901800D01*
X152522416Y-77686162D01*
X152585316Y-77478812D01*
X152687458Y-77287716D01*
X152824919Y-77120219D01*
X152992416Y-76982758D01*
X153183512Y-76880616D01*
X153390862Y-76817716D01*
X153552464Y-76801800D01*
X153660536Y-76801800D01*
X153822138Y-76817716D01*
X153822138Y-76817716D01*
G37*
G36*
X164866500Y-79001800D02*
X162666500Y-79001800D01*
X162666500Y-76801800D01*
X164866500Y-76801800D01*
X164866500Y-79001800D01*
X164866500Y-79001800D01*
G37*
G36*
X134840326Y-77113375D02*
X134991128Y-77159121D01*
X135130106Y-77233406D01*
X135251922Y-77333378D01*
X135351894Y-77455194D01*
X135426179Y-77594172D01*
X135471925Y-77744974D01*
X135487371Y-77901800D01*
X135471925Y-78058626D01*
X135426179Y-78209428D01*
X135351894Y-78348406D01*
X135251922Y-78470222D01*
X135130106Y-78570194D01*
X134991128Y-78644479D01*
X134840326Y-78690225D01*
X134722798Y-78701800D01*
X134644202Y-78701800D01*
X134526674Y-78690225D01*
X134375872Y-78644479D01*
X134236894Y-78570194D01*
X134115078Y-78470222D01*
X134015106Y-78348406D01*
X133940821Y-78209428D01*
X133895075Y-78058626D01*
X133879629Y-77901800D01*
X133895075Y-77744974D01*
X133940821Y-77594172D01*
X134015106Y-77455194D01*
X134115078Y-77333378D01*
X134236894Y-77233406D01*
X134375872Y-77159121D01*
X134526674Y-77113375D01*
X134644202Y-77101800D01*
X134722798Y-77101800D01*
X134840326Y-77113375D01*
X134840326Y-77113375D01*
G37*
G36*
X143103500Y-78701800D02*
X141503500Y-78701800D01*
X141503500Y-77101800D01*
X143103500Y-77101800D01*
X143103500Y-78701800D01*
X143103500Y-78701800D01*
G37*
G36*
X186001600Y-77111800D02*
X182501600Y-77111800D01*
X182501600Y-73611800D01*
X186001600Y-73611800D01*
X186001600Y-77111800D01*
X186001600Y-77111800D01*
G37*
G36*
X180757909Y-70626669D02*
X180884170Y-70664970D01*
X181000537Y-70727169D01*
X181102529Y-70810871D01*
X181186231Y-70912863D01*
X181248430Y-71029230D01*
X181286731Y-71155491D01*
X181301600Y-71306452D01*
X181301600Y-73417148D01*
X181286731Y-73568109D01*
X181248430Y-73694370D01*
X181186231Y-73810737D01*
X181102529Y-73912729D01*
X181000537Y-73996431D01*
X180884170Y-74058630D01*
X180757909Y-74096931D01*
X180606948Y-74111800D01*
X178496252Y-74111800D01*
X178345291Y-74096931D01*
X178219030Y-74058630D01*
X178102663Y-73996431D01*
X178000671Y-73912729D01*
X177916969Y-73810737D01*
X177854770Y-73694370D01*
X177816469Y-73568109D01*
X177801600Y-73417148D01*
X177801600Y-71306452D01*
X177816469Y-71155491D01*
X177854770Y-71029230D01*
X177916969Y-70912863D01*
X178000671Y-70810871D01*
X178102663Y-70727169D01*
X178219030Y-70664970D01*
X178345291Y-70626669D01*
X178496252Y-70611800D01*
X180606948Y-70611800D01*
X180757909Y-70626669D01*
X180757909Y-70626669D01*
G37*
G36*
X164672626Y-69745875D02*
X164823428Y-69791621D01*
X164962406Y-69865906D01*
X165084222Y-69965878D01*
X165184194Y-70087694D01*
X165258479Y-70226672D01*
X165304225Y-70377474D01*
X165315800Y-70495002D01*
X165315800Y-71973598D01*
X165304225Y-72091126D01*
X165258479Y-72241928D01*
X165184194Y-72380906D01*
X165084221Y-72502724D01*
X164962408Y-72602692D01*
X164823427Y-72676979D01*
X164672625Y-72722725D01*
X164515799Y-72738171D01*
X164358974Y-72722725D01*
X164208172Y-72676979D01*
X164069194Y-72602694D01*
X163947376Y-72502721D01*
X163847408Y-72380908D01*
X163773121Y-72241927D01*
X163727375Y-72091125D01*
X163715800Y-71973597D01*
X163715800Y-70495002D01*
X163727375Y-70377474D01*
X163773121Y-70226671D01*
X163847405Y-70087696D01*
X163947379Y-69965878D01*
X164069195Y-69865906D01*
X164208173Y-69791621D01*
X164358975Y-69745875D01*
X164515801Y-69730429D01*
X164672626Y-69745875D01*
X164672626Y-69745875D01*
G37*
G36*
X174832626Y-69745875D02*
X174983428Y-69791621D01*
X175122406Y-69865906D01*
X175244222Y-69965878D01*
X175344194Y-70087694D01*
X175418479Y-70226672D01*
X175464225Y-70377474D01*
X175475800Y-70495002D01*
X175475800Y-71973598D01*
X175464225Y-72091126D01*
X175418479Y-72241928D01*
X175344194Y-72380906D01*
X175244221Y-72502724D01*
X175122408Y-72602692D01*
X174983427Y-72676979D01*
X174832625Y-72722725D01*
X174675799Y-72738171D01*
X174518974Y-72722725D01*
X174368172Y-72676979D01*
X174229194Y-72602694D01*
X174107376Y-72502721D01*
X174007408Y-72380908D01*
X173933121Y-72241927D01*
X173887375Y-72091125D01*
X173875800Y-71973597D01*
X173875800Y-70495002D01*
X173887375Y-70377474D01*
X173933121Y-70226671D01*
X174007405Y-70087696D01*
X174107379Y-69965878D01*
X174229195Y-69865906D01*
X174368173Y-69791621D01*
X174518975Y-69745875D01*
X174675801Y-69730429D01*
X174832626Y-69745875D01*
X174832626Y-69745875D01*
G37*
G36*
X172292626Y-69745875D02*
X172443428Y-69791621D01*
X172582406Y-69865906D01*
X172704222Y-69965878D01*
X172804194Y-70087694D01*
X172878479Y-70226672D01*
X172924225Y-70377474D01*
X172935800Y-70495002D01*
X172935800Y-71973598D01*
X172924225Y-72091126D01*
X172878479Y-72241928D01*
X172804194Y-72380906D01*
X172704221Y-72502724D01*
X172582408Y-72602692D01*
X172443427Y-72676979D01*
X172292625Y-72722725D01*
X172135799Y-72738171D01*
X171978974Y-72722725D01*
X171828172Y-72676979D01*
X171689194Y-72602694D01*
X171567376Y-72502721D01*
X171467408Y-72380908D01*
X171393121Y-72241927D01*
X171347375Y-72091125D01*
X171335800Y-71973597D01*
X171335800Y-70495002D01*
X171347375Y-70377474D01*
X171393121Y-70226671D01*
X171467405Y-70087696D01*
X171567379Y-69965878D01*
X171689195Y-69865906D01*
X171828173Y-69791621D01*
X171978975Y-69745875D01*
X172135801Y-69730429D01*
X172292626Y-69745875D01*
X172292626Y-69745875D01*
G37*
G36*
X152992626Y-69745875D02*
X153143428Y-69791621D01*
X153282406Y-69865906D01*
X153404222Y-69965878D01*
X153504194Y-70087694D01*
X153578479Y-70226672D01*
X153624225Y-70377474D01*
X153635800Y-70495002D01*
X153635800Y-71973598D01*
X153624225Y-72091126D01*
X153578479Y-72241928D01*
X153504194Y-72380906D01*
X153404221Y-72502724D01*
X153282408Y-72602692D01*
X153143427Y-72676979D01*
X152992625Y-72722725D01*
X152835799Y-72738171D01*
X152678974Y-72722725D01*
X152528172Y-72676979D01*
X152389194Y-72602694D01*
X152267376Y-72502721D01*
X152167408Y-72380908D01*
X152093121Y-72241927D01*
X152047375Y-72091125D01*
X152035800Y-71973597D01*
X152035800Y-70495002D01*
X152047375Y-70377474D01*
X152093121Y-70226671D01*
X152167405Y-70087696D01*
X152267379Y-69965878D01*
X152389195Y-69865906D01*
X152528173Y-69791621D01*
X152678975Y-69745875D01*
X152835801Y-69730429D01*
X152992626Y-69745875D01*
X152992626Y-69745875D01*
G37*
G36*
X142832626Y-69745875D02*
X142983428Y-69791621D01*
X143122406Y-69865906D01*
X143244222Y-69965878D01*
X143344194Y-70087694D01*
X143418479Y-70226672D01*
X143464225Y-70377474D01*
X143475800Y-70495002D01*
X143475800Y-71973598D01*
X143464225Y-72091126D01*
X143418479Y-72241928D01*
X143344194Y-72380906D01*
X143244221Y-72502724D01*
X143122408Y-72602692D01*
X142983427Y-72676979D01*
X142832625Y-72722725D01*
X142675799Y-72738171D01*
X142518974Y-72722725D01*
X142368172Y-72676979D01*
X142229194Y-72602694D01*
X142107376Y-72502721D01*
X142007408Y-72380908D01*
X141933121Y-72241927D01*
X141887375Y-72091125D01*
X141875800Y-71973597D01*
X141875800Y-70495002D01*
X141887375Y-70377474D01*
X141933121Y-70226671D01*
X142007405Y-70087696D01*
X142107379Y-69965878D01*
X142229195Y-69865906D01*
X142368173Y-69791621D01*
X142518975Y-69745875D01*
X142675801Y-69730429D01*
X142832626Y-69745875D01*
X142832626Y-69745875D01*
G37*
G36*
X169752626Y-69745875D02*
X169903428Y-69791621D01*
X170042406Y-69865906D01*
X170164222Y-69965878D01*
X170264194Y-70087694D01*
X170338479Y-70226672D01*
X170384225Y-70377474D01*
X170395800Y-70495002D01*
X170395800Y-71973598D01*
X170384225Y-72091126D01*
X170338479Y-72241928D01*
X170264194Y-72380906D01*
X170164221Y-72502724D01*
X170042408Y-72602692D01*
X169903427Y-72676979D01*
X169752625Y-72722725D01*
X169595799Y-72738171D01*
X169438974Y-72722725D01*
X169288172Y-72676979D01*
X169149194Y-72602694D01*
X169027376Y-72502721D01*
X168927408Y-72380908D01*
X168853121Y-72241927D01*
X168807375Y-72091125D01*
X168795800Y-71973597D01*
X168795800Y-70495002D01*
X168807375Y-70377474D01*
X168853121Y-70226671D01*
X168927405Y-70087696D01*
X169027379Y-69965878D01*
X169149195Y-69865906D01*
X169288173Y-69791621D01*
X169438975Y-69745875D01*
X169595801Y-69730429D01*
X169752626Y-69745875D01*
X169752626Y-69745875D01*
G37*
G36*
X140292626Y-69745875D02*
X140443428Y-69791621D01*
X140582406Y-69865906D01*
X140704222Y-69965878D01*
X140804194Y-70087694D01*
X140878479Y-70226672D01*
X140924225Y-70377474D01*
X140935800Y-70495002D01*
X140935800Y-71973598D01*
X140924225Y-72091126D01*
X140878479Y-72241928D01*
X140804194Y-72380906D01*
X140704221Y-72502724D01*
X140582408Y-72602692D01*
X140443427Y-72676979D01*
X140292625Y-72722725D01*
X140135799Y-72738171D01*
X139978974Y-72722725D01*
X139828172Y-72676979D01*
X139689194Y-72602694D01*
X139567376Y-72502721D01*
X139467408Y-72380908D01*
X139393121Y-72241927D01*
X139347375Y-72091125D01*
X139335800Y-71973597D01*
X139335800Y-70495002D01*
X139347375Y-70377474D01*
X139393121Y-70226671D01*
X139467405Y-70087696D01*
X139567379Y-69965878D01*
X139689195Y-69865906D01*
X139828173Y-69791621D01*
X139978975Y-69745875D01*
X140135801Y-69730429D01*
X140292626Y-69745875D01*
X140292626Y-69745875D01*
G37*
G36*
X137752626Y-69745875D02*
X137903428Y-69791621D01*
X138042406Y-69865906D01*
X138164222Y-69965878D01*
X138264194Y-70087694D01*
X138338479Y-70226672D01*
X138384225Y-70377474D01*
X138395800Y-70495002D01*
X138395800Y-71973598D01*
X138384225Y-72091126D01*
X138338479Y-72241928D01*
X138264194Y-72380906D01*
X138164221Y-72502724D01*
X138042408Y-72602692D01*
X137903427Y-72676979D01*
X137752625Y-72722725D01*
X137595799Y-72738171D01*
X137438974Y-72722725D01*
X137288172Y-72676979D01*
X137149194Y-72602694D01*
X137027376Y-72502721D01*
X136927408Y-72380908D01*
X136853121Y-72241927D01*
X136807375Y-72091125D01*
X136795800Y-71973597D01*
X136795800Y-70495002D01*
X136807375Y-70377474D01*
X136853121Y-70226671D01*
X136927405Y-70087696D01*
X137027379Y-69965878D01*
X137149195Y-69865906D01*
X137288173Y-69791621D01*
X137438975Y-69745875D01*
X137595801Y-69730429D01*
X137752626Y-69745875D01*
X137752626Y-69745875D01*
G37*
G36*
X135212626Y-69745875D02*
X135363428Y-69791621D01*
X135502406Y-69865906D01*
X135624222Y-69965878D01*
X135724194Y-70087694D01*
X135798479Y-70226672D01*
X135844225Y-70377474D01*
X135855800Y-70495002D01*
X135855800Y-71973598D01*
X135844225Y-72091126D01*
X135798479Y-72241928D01*
X135724194Y-72380906D01*
X135624221Y-72502724D01*
X135502408Y-72602692D01*
X135363427Y-72676979D01*
X135212625Y-72722725D01*
X135055799Y-72738171D01*
X134898974Y-72722725D01*
X134748172Y-72676979D01*
X134609194Y-72602694D01*
X134487376Y-72502721D01*
X134387408Y-72380908D01*
X134313121Y-72241927D01*
X134267375Y-72091125D01*
X134255800Y-71973597D01*
X134255800Y-70495002D01*
X134267375Y-70377474D01*
X134313121Y-70226671D01*
X134387405Y-70087696D01*
X134487379Y-69965878D01*
X134609195Y-69865906D01*
X134748173Y-69791621D01*
X134898975Y-69745875D01*
X135055801Y-69730429D01*
X135212626Y-69745875D01*
X135212626Y-69745875D01*
G37*
G36*
X132672626Y-69745875D02*
X132823428Y-69791621D01*
X132962406Y-69865906D01*
X133084222Y-69965878D01*
X133184194Y-70087694D01*
X133258479Y-70226672D01*
X133304225Y-70377474D01*
X133315800Y-70495002D01*
X133315800Y-71973598D01*
X133304225Y-72091126D01*
X133258479Y-72241928D01*
X133184194Y-72380906D01*
X133084221Y-72502724D01*
X132962408Y-72602692D01*
X132823427Y-72676979D01*
X132672625Y-72722725D01*
X132515799Y-72738171D01*
X132358974Y-72722725D01*
X132208172Y-72676979D01*
X132069194Y-72602694D01*
X131947376Y-72502721D01*
X131847408Y-72380908D01*
X131773121Y-72241927D01*
X131727375Y-72091125D01*
X131715800Y-71973597D01*
X131715800Y-70495002D01*
X131727375Y-70377474D01*
X131773121Y-70226671D01*
X131847405Y-70087696D01*
X131947379Y-69965878D01*
X132069195Y-69865906D01*
X132208173Y-69791621D01*
X132358975Y-69745875D01*
X132515801Y-69730429D01*
X132672626Y-69745875D01*
X132672626Y-69745875D01*
G37*
G36*
X145372626Y-69745875D02*
X145523428Y-69791621D01*
X145662406Y-69865906D01*
X145784222Y-69965878D01*
X145884194Y-70087694D01*
X145958479Y-70226672D01*
X146004225Y-70377474D01*
X146015800Y-70495002D01*
X146015800Y-71973598D01*
X146004225Y-72091126D01*
X145958479Y-72241928D01*
X145884194Y-72380906D01*
X145784221Y-72502724D01*
X145662408Y-72602692D01*
X145523427Y-72676979D01*
X145372625Y-72722725D01*
X145215799Y-72738171D01*
X145058974Y-72722725D01*
X144908172Y-72676979D01*
X144769194Y-72602694D01*
X144647376Y-72502721D01*
X144547408Y-72380908D01*
X144473121Y-72241927D01*
X144427375Y-72091125D01*
X144415800Y-71973597D01*
X144415800Y-70495002D01*
X144427375Y-70377474D01*
X144473121Y-70226671D01*
X144547405Y-70087696D01*
X144647379Y-69965878D01*
X144769195Y-69865906D01*
X144908173Y-69791621D01*
X145058975Y-69745875D01*
X145215801Y-69730429D01*
X145372626Y-69745875D01*
X145372626Y-69745875D01*
G37*
G36*
X167212626Y-69745875D02*
X167363428Y-69791621D01*
X167502406Y-69865906D01*
X167624222Y-69965878D01*
X167724194Y-70087694D01*
X167798479Y-70226672D01*
X167844225Y-70377474D01*
X167855800Y-70495002D01*
X167855800Y-71973598D01*
X167844225Y-72091126D01*
X167798479Y-72241928D01*
X167724194Y-72380906D01*
X167624221Y-72502724D01*
X167502408Y-72602692D01*
X167363427Y-72676979D01*
X167212625Y-72722725D01*
X167055799Y-72738171D01*
X166898974Y-72722725D01*
X166748172Y-72676979D01*
X166609194Y-72602694D01*
X166487376Y-72502721D01*
X166387408Y-72380908D01*
X166313121Y-72241927D01*
X166267375Y-72091125D01*
X166255800Y-71973597D01*
X166255800Y-70495002D01*
X166267375Y-70377474D01*
X166313121Y-70226671D01*
X166387405Y-70087696D01*
X166487379Y-69965878D01*
X166609195Y-69865906D01*
X166748173Y-69791621D01*
X166898975Y-69745875D01*
X167055801Y-69730429D01*
X167212626Y-69745875D01*
X167212626Y-69745875D01*
G37*
G36*
X150452626Y-69745875D02*
X150603428Y-69791621D01*
X150742406Y-69865906D01*
X150864222Y-69965878D01*
X150964194Y-70087694D01*
X151038479Y-70226672D01*
X151084225Y-70377474D01*
X151095800Y-70495002D01*
X151095800Y-71973598D01*
X151084225Y-72091126D01*
X151038479Y-72241928D01*
X150964194Y-72380906D01*
X150864221Y-72502724D01*
X150742408Y-72602692D01*
X150603427Y-72676979D01*
X150452625Y-72722725D01*
X150295799Y-72738171D01*
X150138974Y-72722725D01*
X149988172Y-72676979D01*
X149849194Y-72602694D01*
X149727376Y-72502721D01*
X149627408Y-72380908D01*
X149553121Y-72241927D01*
X149507375Y-72091125D01*
X149495800Y-71973597D01*
X149495800Y-70495002D01*
X149507375Y-70377474D01*
X149553121Y-70226671D01*
X149627405Y-70087696D01*
X149727379Y-69965878D01*
X149849195Y-69865906D01*
X149988173Y-69791621D01*
X150138975Y-69745875D01*
X150295801Y-69730429D01*
X150452626Y-69745875D01*
X150452626Y-69745875D01*
G37*
G36*
X130132626Y-69745875D02*
X130283428Y-69791621D01*
X130422406Y-69865906D01*
X130544222Y-69965878D01*
X130644194Y-70087694D01*
X130718479Y-70226672D01*
X130764225Y-70377474D01*
X130775800Y-70495002D01*
X130775800Y-71973598D01*
X130764225Y-72091126D01*
X130718479Y-72241928D01*
X130644194Y-72380906D01*
X130544221Y-72502724D01*
X130422408Y-72602692D01*
X130283427Y-72676979D01*
X130132625Y-72722725D01*
X129975799Y-72738171D01*
X129818974Y-72722725D01*
X129668172Y-72676979D01*
X129529194Y-72602694D01*
X129407376Y-72502721D01*
X129307408Y-72380908D01*
X129233121Y-72241927D01*
X129187375Y-72091125D01*
X129175800Y-71973597D01*
X129175800Y-70495002D01*
X129187375Y-70377474D01*
X129233121Y-70226671D01*
X129307405Y-70087696D01*
X129407379Y-69965878D01*
X129529195Y-69865906D01*
X129668173Y-69791621D01*
X129818975Y-69745875D01*
X129975801Y-69730429D01*
X130132626Y-69745875D01*
X130132626Y-69745875D01*
G37*
G36*
X157052626Y-69745875D02*
X157203428Y-69791621D01*
X157342406Y-69865906D01*
X157464222Y-69965878D01*
X157564194Y-70087694D01*
X157638479Y-70226672D01*
X157684225Y-70377474D01*
X157695800Y-70495002D01*
X157695800Y-71973598D01*
X157684225Y-72091126D01*
X157638479Y-72241928D01*
X157564194Y-72380906D01*
X157464221Y-72502724D01*
X157342408Y-72602692D01*
X157203427Y-72676979D01*
X157052625Y-72722725D01*
X156895799Y-72738171D01*
X156738974Y-72722725D01*
X156588172Y-72676979D01*
X156449194Y-72602694D01*
X156327376Y-72502721D01*
X156227408Y-72380908D01*
X156153121Y-72241927D01*
X156107375Y-72091125D01*
X156095800Y-71973597D01*
X156095800Y-70495002D01*
X156107375Y-70377474D01*
X156153121Y-70226671D01*
X156227405Y-70087696D01*
X156327379Y-69965878D01*
X156449195Y-69865906D01*
X156588173Y-69791621D01*
X156738975Y-69745875D01*
X156895801Y-69730429D01*
X157052626Y-69745875D01*
X157052626Y-69745875D01*
G37*
G36*
X159592626Y-69745875D02*
X159743428Y-69791621D01*
X159882406Y-69865906D01*
X160004222Y-69965878D01*
X160104194Y-70087694D01*
X160178479Y-70226672D01*
X160224225Y-70377474D01*
X160235800Y-70495002D01*
X160235800Y-71973598D01*
X160224225Y-72091126D01*
X160178479Y-72241928D01*
X160104194Y-72380906D01*
X160004221Y-72502724D01*
X159882408Y-72602692D01*
X159743427Y-72676979D01*
X159592625Y-72722725D01*
X159435799Y-72738171D01*
X159278974Y-72722725D01*
X159128172Y-72676979D01*
X158989194Y-72602694D01*
X158867376Y-72502721D01*
X158767408Y-72380908D01*
X158693121Y-72241927D01*
X158647375Y-72091125D01*
X158635800Y-71973597D01*
X158635800Y-70495002D01*
X158647375Y-70377474D01*
X158693121Y-70226671D01*
X158767405Y-70087696D01*
X158867379Y-69965878D01*
X158989195Y-69865906D01*
X159128173Y-69791621D01*
X159278975Y-69745875D01*
X159435801Y-69730429D01*
X159592626Y-69745875D01*
X159592626Y-69745875D01*
G37*
G36*
X162132626Y-69745875D02*
X162283428Y-69791621D01*
X162422406Y-69865906D01*
X162544222Y-69965878D01*
X162644194Y-70087694D01*
X162718479Y-70226672D01*
X162764225Y-70377474D01*
X162775800Y-70495002D01*
X162775800Y-71973598D01*
X162764225Y-72091126D01*
X162718479Y-72241928D01*
X162644194Y-72380906D01*
X162544221Y-72502724D01*
X162422408Y-72602692D01*
X162283427Y-72676979D01*
X162132625Y-72722725D01*
X161975799Y-72738171D01*
X161818974Y-72722725D01*
X161668172Y-72676979D01*
X161529194Y-72602694D01*
X161407376Y-72502721D01*
X161307408Y-72380908D01*
X161233121Y-72241927D01*
X161187375Y-72091125D01*
X161175800Y-71973597D01*
X161175800Y-70495002D01*
X161187375Y-70377474D01*
X161233121Y-70226671D01*
X161307405Y-70087696D01*
X161407379Y-69965878D01*
X161529195Y-69865906D01*
X161668173Y-69791621D01*
X161818975Y-69745875D01*
X161975801Y-69730429D01*
X162132626Y-69745875D01*
X162132626Y-69745875D01*
G37*
G36*
X147912626Y-69745875D02*
X148063428Y-69791621D01*
X148202406Y-69865906D01*
X148324222Y-69965878D01*
X148424194Y-70087694D01*
X148498479Y-70226672D01*
X148544225Y-70377474D01*
X148555800Y-70495002D01*
X148555800Y-71973598D01*
X148544225Y-72091126D01*
X148498479Y-72241928D01*
X148424194Y-72380906D01*
X148324221Y-72502724D01*
X148202408Y-72602692D01*
X148063427Y-72676979D01*
X147912625Y-72722725D01*
X147755799Y-72738171D01*
X147598974Y-72722725D01*
X147448172Y-72676979D01*
X147309194Y-72602694D01*
X147187376Y-72502721D01*
X147087408Y-72380908D01*
X147013121Y-72241927D01*
X146967375Y-72091125D01*
X146955800Y-71973597D01*
X146955800Y-70495002D01*
X146967375Y-70377474D01*
X147013121Y-70226671D01*
X147087405Y-70087696D01*
X147187379Y-69965878D01*
X147309195Y-69865906D01*
X147448173Y-69791621D01*
X147598975Y-69745875D01*
X147755801Y-69730429D01*
X147912626Y-69745875D01*
X147912626Y-69745875D01*
G37*
G36*
X185558525Y-67874267D02*
X185661335Y-67905454D01*
X185756089Y-67956101D01*
X185839140Y-68024260D01*
X185907299Y-68107311D01*
X185957946Y-68202065D01*
X185989133Y-68304875D01*
X186001600Y-68431452D01*
X186001600Y-70292148D01*
X185989133Y-70418725D01*
X185957946Y-70521535D01*
X185907299Y-70616289D01*
X185839140Y-70699340D01*
X185756089Y-70767499D01*
X185661335Y-70818146D01*
X185558525Y-70849333D01*
X185431948Y-70861800D01*
X183071252Y-70861800D01*
X182944675Y-70849333D01*
X182841865Y-70818146D01*
X182747111Y-70767499D01*
X182664060Y-70699340D01*
X182595901Y-70616289D01*
X182545254Y-70521535D01*
X182514067Y-70418725D01*
X182501600Y-70292148D01*
X182501600Y-68431452D01*
X182514067Y-68304875D01*
X182545254Y-68202065D01*
X182595901Y-68107311D01*
X182664060Y-68024260D01*
X182747111Y-67956101D01*
X182841865Y-67905454D01*
X182944675Y-67874267D01*
X183071252Y-67861800D01*
X185431948Y-67861800D01*
X185558525Y-67874267D01*
X185558525Y-67874267D01*
G37*
M02*
